<svg xmlns="http://www.w3.org/2000/svg" width="24" height="24" viewBox="0 0 24 24"><g fill="none" fill-rule="evenodd"><rect width="3" height="4" x="5" y="10" fill="#000" rx="1"/><path fill="#000" d="M7 9.772l2.531-1.343A1 1 0 0 1 11 9.312v5.376a1 1 0 0 1-1.469.883L7 14.228V9.772z"/><path fill="#000" fill-rule="nonzero" stroke="#000" d="M13.62 15.88a3.65 3.65 0 0 0 .225-.292 6.2 6.2 0 0 0 .47-.783A6.167 6.167 0 0 0 15 12a6.167 6.167 0 0 0-.685-2.805 6.2 6.2 0 0 0-.47-.783 3.65 3.65 0 0 0-.226-.292.341.341 0 0 0-.508-.012.41.41 0 0 0-.011.549 3.794 3.794 0 0 1 .174.227c.14.197.28.426.41.684.374.736.597 1.555.597 2.432s-.223 1.696-.596 2.432a5.419 5.419 0 0 1-.542.86 1.6 1.6 0 0 1-.043.051.41.41 0 0 0 .01.55.341.341 0 0 0 .51-.013zM17.62 15.88a3.65 3.65 0 0 0 .225-.292 6.2 6.2 0 0 0 .47-.783A6.167 6.167 0 0 0 19 12a6.167 6.167 0 0 0-.685-2.805 6.2 6.2 0 0 0-.47-.783 3.65 3.65 0 0 0-.226-.292.341.341 0 0 0-.508-.012.41.41 0 0 0-.011.549 3.794 3.794 0 0 1 .174.227c.14.197.28.426.41.684.374.736.597 1.555.597 2.432s-.223 1.696-.596 2.432a5.419 5.419 0 0 1-.542.86 1.6 1.6 0 0 1-.043.051.41.41 0 0 0 .01.55.341.341 0 0 0 .51-.013z"/><circle cx="12" cy="12" r="11" stroke="#000" stroke-width="2"/></g></svg>